<svg enable-background="new 0 0 128 128" viewBox="0 0 128 128" xmlns="http://www.w3.org/2000/svg" xmlns:xlink="http://www.w3.org/1999/xlink"><linearGradient id="a" gradientUnits="userSpaceOnUse" x1="64" x2="64" y1="36.8329" y2="104.33"><stop offset="0" stop-color="#ffc107"/><stop offset="1" stop-color="#ffd54f"/></linearGradient><linearGradient id="b" gradientUnits="userSpaceOnUse" x1="64" x2="64" y1="8.4562" y2="72.154"><stop offset="0" stop-color="#ffe082"/><stop offset=".9931" stop-color="#ffca28"/></linearGradient><path d="m120 104h-112c-2.2 0-4-1.8-4-4v-72c0-2.2 1.8-4 4-4h112c2.2 0 4 1.8 4 4v72c0 2.2-1.8 4-4 4z" fill="url(#a)"/><path d="m124 30.2v-2.2c0-2.2-1.8-4-4-4h-112c-2.2 0-4 1.8-4 4v2l59.9 46.1z" fill="url(#b)"/><g fill="#ffb300"><path d="m44.1 61.8-38.1 41.6c-.9-.5-1.6-1.4-1.8-2.5l37.8-41.2z"/><path d="m123.8 101.3c-.3 1-1 1.8-2 2.3l-38-41.9 2.2-2z"/><path d="m124 29v3.8l-60.1 45.2-59.9-45.4v-3.7l59.9 45.4z"/></g><path d="m120 27c.6 0 1 .5 1 1v72c0 .6-.4 1-1 1h-112c-.6 0-1-.4-1-1v-72c0-.5.4-1 1-1zm0-3h-112c-2.2 0-4 1.8-4 4v72c0 2.2 1.8 4 4 4h112c2.2 0 4-1.8 4-4v-72c0-2.2-1.8-4-4-4z" fill="#444" opacity=".2"/></svg>